# xmcd
#
# Track frame offsets:
# 150
# 18660
# 43270
# 55522
# 78390
# 94854
# 120650
# 140540
# 161297
# 178875
# 198482
# 218620
#
# Disc length: 3169 seconds
#
#
# Revision: 0
# Processed by: cddbd v1.5.2PL0 Copyright (c) Steve Scherf et al.
# Submitted via: Nero 7, 11, 10, 0 
#
DISCID=a20c5f0c
DTITLE=Paul Mark and The Van Dorens - Metropolitan Swamp
DYEAR=1994
DGENRE=Blues
TTITLE0=With Each Heart I Break
TTITLE1=Preacher's Door
TTITLE2=Happy Birthday, Memories
TTITLE3=Walking Home Alone In The Dark
TTITLE4=She Found Religion
TTITLE5=The Saddest Cab In Town
TTITLE6=Who Don't I.O.?
TTITLE7=All The Wrong Dreams
TTITLE8=The Trip We Never Made
TTITLE9=The Secret To My Success
TTITLE10=Bridge To The Other Side
TTITLE11=I'm Going Blind
EXTD=
EXTT0=With Each Heart I Break
EXTT1=Preacher's Door
EXTT2=Happy Birthday, Memories
EXTT3=Walking Home Alone In The Dark
EXTT4=She Found Religion
EXTT5=The Saddest Cab In Town
EXTT6=Who Don't I.O.?
EXTT7=All The Wrong Dreams
EXTT8=The Trip We Never Made
EXTT9=The Secret To My Success
EXTT10=Bridge To The Other Side
EXTT11=I'm Going Blind
PLAYORDER=
